# xmcd
#
# Track frame offsets: 
#        182
#        13580
#        26142
#        40530
#        69470
#        84255
#        96097
#        109205
#        131480
#        153912
#        170785
#        186280
#        200977
#        217780
#        256085
#        275187
#        292890
#        321005
#        345115
#
# Disc length: 4601 seconds
#
# Revision: 5
# Processed by: cddbd v1.5.2PL0 Copyright (c) Steve Scherf et al.
# Submitted via: ExactAudioCopy v1.1
#
DISCID=0911f713
DTITLE=Ray Charles - Genius and Soul - 50th Anniversary - Disc 4
DYEAR=1997
DGENRE=R&B
TTITLE0=Eleanor Rigby (stereo)
TTITLE1=Yesterday (stereo)
TTITLE2=Understanding (stereo)
TTITLE3=Drifting Blues (stereo)
TTITLE4=Here We Go Again (stereo)
TTITLE5=In The Heat Of The Night (stereo)
TTITLE6=Gee, Baby Ain't I Good To You (stereo)
TTITLE7=I Didn't Know What Time It Was (stereo)
TTITLE8=If It Wasn't For Bad Luck (stereo)
TTITLE9=We Can Make It (stereo)
TTITLE10=Don't Change On Me
TTITLE11=Feel So Bad
TTITLE12=Look What They've Done To My Song, Ma
TTITLE13=Aretha Franklin and Ray Charles - Spirit In The Dark (Reprise) 
TTITLE13=(live)
TTITLE14=Booty Butt
TTITLE15=I Can Make It Thru The Days (But Oh Those Lonely Nights)
TTITLE16=Rainy Night In Georgia
TTITLE17=America The Beautiful (Followed By A Coke Commercial) 
TTITLE18=(Unknown)
EXTD=
EXTT0=
EXTT1=
EXTT2=
EXTT3=
EXTT4=
EXTT5=
EXTT6=
EXTT7=
EXTT8=
EXTT9=
EXTT10=
EXTT11=
EXTT12=
EXTT13=
EXTT14=
EXTT15=
EXTT16=
EXTT17=
EXTT18=
PLAYORDER=
